<svg xmlns="http://www.w3.org/2000/svg" width="37.998" height="45.998" viewBox="0 0 37.998 45.998">
  <path id="Path_60" data-name="Path 60" d="M96.92,106.133h8.564a8.5,8.5,0,0,1,8.512,8.482v20.9a8.5,8.5,0,0,1-8.512,8.482H84.51A8.5,8.5,0,0,1,76,135.512v-20.9a8.5,8.5,0,0,1,8.514-8.482h8.564v-6.29A1.854,1.854,0,0,1,94.93,98h.134a1.853,1.853,0,0,1,1.856,1.848Zm-.114,0h-3.62v0h-.112v22.919l-5.026-4.572a1.892,1.892,0,0,0-2.614.08,1.765,1.765,0,0,0,.082,2.546l8.182,7.444a1.893,1.893,0,0,0,1.248.48l.054,0,.064,0a1.891,1.891,0,0,0,1.232-.48l8.182-7.444a1.765,1.765,0,0,0,.082-2.546,1.893,1.893,0,0,0-2.616-.08l-5.024,4.572V106.139h-.114Z" transform="translate(-75.997 -97.996)" fill="#fff" fill-rule="evenodd"/>
</svg>
