<svg id="community-fill" xmlns="http://www.w3.org/2000/svg" width="94.176" height="94.176" viewBox="0 0 94.176 94.176">
  <path id="Path_271" data-name="Path 271" d="M0,0H94.176V94.176H0Z" fill="none"/>
  <path id="Path_272" data-name="Path 272" d="M29.468,65.784H41.24V42.013l-15.7-13.687L9.848,42.013V65.784H21.62v-15.7h7.848Zm47.088,7.848H5.924A3.924,3.924,0,0,1,2,69.708V40.227a3.924,3.924,0,0,1,1.346-2.959L17.7,24.755V6.924A3.924,3.924,0,0,1,21.62,3H76.556A3.924,3.924,0,0,1,80.48,6.924V69.708A3.924,3.924,0,0,1,76.556,73.632Zm-19.62-39.24V42.24h7.848V34.392Zm0,15.7v7.848h7.848V50.088Zm0-31.392v7.848h7.848V18.7Zm-15.7,0v7.848h7.848V18.7Z" transform="translate(5.848 8.772)" fill="#2d3368"/>
</svg>
