<svg xmlns="http://www.w3.org/2000/svg" width="49.886" height="33.013" viewBox="0 0 49.886 33.013">
  <path id="Path_54" data-name="Path 54" d="M504.727,35.214H472.794a7.052,7.052,0,0,1,1.868-4.843,8.114,8.114,0,0,1,4.861-1.957,11.285,11.285,0,0,0,5.769-2.373V23.546s-3.781-1.071-5.062-2.373c0,0,.838-2.088,1.056-2.842a10.272,10.272,0,0,0,.1-3.272,30.12,30.12,0,0,1-.076-5.932c.293-1.467,1.145-3.835,2.519-4.57a4.838,4.838,0,0,1,2.989-.368,6.7,6.7,0,0,1,2.308-.982,5.784,5.784,0,0,1,3.769.644,6.651,6.651,0,0,1,2.7,3.5,15.036,15.036,0,0,1,.362,5.809,11.843,11.843,0,0,0,.034,2.588,17.194,17.194,0,0,0,.694,3.1,12.822,12.822,0,0,0,1.1,2.487,3.929,3.929,0,0,1-2.359,1.566,13.1,13.1,0,0,1-3.2.646V26.04A11.284,11.284,0,0,0,498,28.413a8.119,8.119,0,0,1,4.862,1.957A7.047,7.047,0,0,1,504.727,35.214ZM473.664,29.3a8.46,8.46,0,0,0-2.334,5.911H454.844s-.2-4.911,2.835-6.619c3.532-1.987,6.889-2.176,7.916-2.507.96-.31,1.99-.635,1.99-1.957s.016-1.492-.31-1.668a2.074,2.074,0,0,1-1.071-1.274,30.064,30.064,0,0,0-.425-3.166c-.2-.276-.55-.041-.668-.666a10.278,10.278,0,0,0-.236-1.407,4.339,4.339,0,0,1-.273-2.268c.224-.464.637-.222.666-.509.05-.468-.829-4.4-.236-6.061a3.569,3.569,0,0,1,1.915-2.364c.629-.39,1.03-1.391,2.522-2.135a6.321,6.321,0,0,1,4.435,0c.747.314,3.73,1.133,4.161,2.659a7.85,7.85,0,0,1,1.048,1.84c.593,1.664-.286,5.593-.235,6.061.028.288.439.045.666.509a4.369,4.369,0,0,1-.274,2.268,10.1,10.1,0,0,0-.235,1.407c-.119.625-.471.39-.668.666a30.344,30.344,0,0,0-.428,3.166,2.061,2.061,0,0,1-1.07,1.274c-.326.176-.308.348-.308,1.668s1.03,1.648,1.988,1.957c.456.147,1.388.274,2.574.536a6.678,6.678,0,0,1-1.627.332A9.618,9.618,0,0,0,473.664,29.3Z" transform="translate(-454.841 -2.201)" fill="#fff" fill-rule="evenodd"/>
</svg>
