<svg id="eye-off-fill" xmlns="http://www.w3.org/2000/svg" width="17.539" height="17.539" viewBox="0 0 17.539 17.539">
  <path id="Path_224" data-name="Path 224" d="M0,0H17.539V17.539H0Z" fill="none"/>
  <path id="Path_225" data-name="Path 225" d="M3.621,4.712,1.336,2.427,2.37,1.393l14.469,14.47L15.8,16.9l-2.419-2.419a8.042,8.042,0,0,1-12.2-5.333A8.026,8.026,0,0,1,3.622,4.712ZM11.1,12.193l-1.07-1.07A2.192,2.192,0,0,1,7.108,8.2L6.039,7.13A3.654,3.654,0,0,0,11.1,12.193ZM6.145,3.123A8.046,8.046,0,0,1,16.994,9.145a8,8,0,0,1-1.47,3.356L12.7,9.679A3.654,3.654,0,0,0,8.552,5.529L6.145,3.124Z" transform="translate(-0.318 -0.375)" fill="#707070"/>
</svg>