<svg xmlns="http://www.w3.org/2000/svg" width="49.886" height="47.983" viewBox="0 0 49.886 47.983">
  <path id="Path_55" data-name="Path 55" d="M666.392,109.241V108.9a2.887,2.887,0,1,1,5.774,0v5.486l4.7,4.188c1.648,1.47,1.192,2.66-1.02,2.66h-3.682V143.98a2,2,0,0,1-2.016,2.014H635.7a2.012,2.012,0,0,1-2.014-2.014V121.233h-3.7c-2.212,0-2.668-1.19-1.018-2.66l22.465-20.015a2.29,2.29,0,0,1,2.972,0Zm-7.7,16.753v14h7.7v-14Z" transform="translate(-627.972 -98.01)" fill="#fff" fill-rule="evenodd"/>
</svg>
