<svg xmlns="http://www.w3.org/2000/svg" width="35.93" height="36" viewBox="0 0 35.93 36">
  <g id="printer" transform="translate(-0.5)">
    <path id="Path_210" data-name="Path 210" d="M111.984,6.961V5.273A5.279,5.279,0,0,0,106.711,0H93.773A5.279,5.279,0,0,0,88.5,5.273V6.961Z" transform="translate(-81.813)" fill="#fafafa"/>
    <path id="Path_211" data-name="Path 211" d="M118.5,319v11.461a2.109,2.109,0,0,0,2.109,2.109h15.047a2.109,2.109,0,0,0,2.109-2.109V319Zm12.445,9H125.32a1.055,1.055,0,1,1,0-2.109h5.625a1.055,1.055,0,0,1,0,2.109Zm0-4.5H125.32a1.055,1.055,0,1,1,0-2.109h5.625a1.055,1.055,0,0,1,0,2.109Z" transform="translate(-109.703 -296.57)" fill="#fafafa"/>
    <path id="Path_212" data-name="Path 212" d="M31.156,129H5.773A5.279,5.279,0,0,0,.5,134.273v8.437a5.279,5.279,0,0,0,5.273,5.273h.914v-5.625H6.055a1.055,1.055,0,1,1,0-2.109H30.8a1.055,1.055,0,1,1,0,2.109h-.633v5.625h.984a5.279,5.279,0,0,0,5.273-5.273v-8.437A5.279,5.279,0,0,0,31.156,129ZM9.43,135.609H6.055a1.055,1.055,0,0,1,0-2.109H9.43a1.055,1.055,0,1,1,0,2.109Z" transform="translate(0 -119.93)" fill="#fafafa"/>
  </g>
</svg>