<svg xmlns="http://www.w3.org/2000/svg" width="39.007" height="33.351" viewBox="0 0 39.007 33.351">
  <path id="Path_57" data-name="Path 57" d="M56.4,466.427a14.134,14.134,0,0,1-4.037-9.715c0-8.8,8.74-15.953,19.5-15.953s19.5,7.148,19.5,15.953-8.74,15.953-19.5,15.953a22.9,22.9,0,0,1-9.237-1.9l-6.265,3.347Zm9.867-11.411a1.7,1.7,0,1,1-1.7,1.7A1.7,1.7,0,0,1,66.269,455.016Zm5.6,0a1.7,1.7,0,1,1-1.695,1.7A1.7,1.7,0,0,1,71.867,455.016Zm5.6,0a1.7,1.7,0,1,1-1.7,1.7A1.7,1.7,0,0,1,77.467,455.016Z" transform="translate(-52.364 -440.759)" fill="#fff" fill-rule="evenodd"/>
</svg>
