<svg xmlns="http://www.w3.org/2000/svg" width="16" height="16" viewBox="0 0 16 16">
  <g id="Group_195" data-name="Group 195" transform="translate(-1576 -224)">
    <g id="Path_198" data-name="Path 198" transform="translate(1576 224)" fill="none">
      <path d="M8,0A8,8,0,1,1,0,8,8,8,0,0,1,8,0Z" stroke="none"/>
      <path d="M 8 1 C 4.140190124511719 1 1 4.140190124511719 1 8 C 1 11.85980987548828 4.140190124511719 15 8 15 C 11.85980987548828 15 15 11.85980987548828 15 8 C 15 4.140190124511719 11.85980987548828 1 8 1 M 8 0 C 12.41827964782715 0 16 3.581720352172852 16 8 C 16 12.41827964782715 12.41827964782715 16 8 16 C 3.581720352172852 16 0 12.41827964782715 0 8 C 0 3.581720352172852 3.581720352172852 0 8 0 Z" stroke="none" fill="#d03425"/>
    </g>
    <g id="Rectangle_214" data-name="Rectangle 214" transform="translate(1580 231)" fill="none" stroke="#d03425" stroke-width="1">
      <rect width="8" height="2" stroke="none"/>
      <rect x="0.5" y="0.5" width="7" height="1" fill="none"/>
    </g>
  </g>
</svg>