<svg xmlns="http://www.w3.org/2000/svg" width="32.031" height="34" viewBox="0 0 32.031 34">
  <g id="grade" transform="translate(-51)">
    <path id="Path_203" data-name="Path 203" d="M361,8.787v7.126h7.126Z" transform="translate(-285.781 -8.101)" fill="#fafafa"/>
    <path id="Path_204" data-name="Path 204" d="M149.565,186.183h4.147l-2.064-5.469Z" transform="translate(-90.865 -166.596)" fill="#fafafa"/>
    <path id="Path_205" data-name="Path 205" d="M74.047,10.156a1.172,1.172,0,0,1-1.172-1.172V0h-20.7A1.172,1.172,0,0,0,51,1.172V32.828A1.172,1.172,0,0,0,52.172,34H81.859a1.172,1.172,0,0,0,1.172-1.172V10.156ZM67.8,13.281h1.172V12.109a1.172,1.172,0,1,1,2.344,0v1.172h1.172a1.172,1.172,0,1,1,0,2.344H71.313V16.8a1.172,1.172,0,0,1-2.344,0V15.625H67.8a1.172,1.172,0,1,1,0-2.344ZM66.114,24.925a1.171,1.171,0,0,1-1.51-.683l-.872-2.311H57.808l-.881,2.315a1.172,1.172,0,0,1-2.19-.834L59.43,11.087l.01-.026a1.45,1.45,0,0,1,1.345-.9h0a1.45,1.45,0,0,1,1.346.9l.013.032L66.8,23.414a1.172,1.172,0,0,1-.683,1.51Z" transform="translate(0)" fill="#fafafa"/>
  </g>
</svg>