<svg xmlns="http://www.w3.org/2000/svg" width="36" height="38" viewBox="0 0 36 38">
  <path id="Path_58" data-name="Path 58" d="M1686.4,1260.4a3.185,3.185,0,0,1-3.2,3,3.26,3.26,0,0,1-3.2-3Zm13.7-4a13.161,13.161,0,0,1-6.8-12l-.1-7a8.932,8.932,0,0,0-7.9-7.9v-2.1a2,2,0,0,0-4,0v2.1a8.932,8.932,0,0,0-7.9,7.9l-.1,7a13.4,13.4,0,0,1-6.9,12.1,1.5,1.5,0,0,0-1.1,1.4,1.538,1.538,0,0,0,1.5,1.5h33a1.538,1.538,0,0,0,1.5-1.5A1.631,1.631,0,0,0,1700.1,1256.4Zm-2.3.9a16.065,16.065,0,0,1-6.7-13v-6.7a7.214,7.214,0,0,0-6.2-6.2h-3.5a7.214,7.214,0,0,0-6.2,6.2v6.8a16.063,16.063,0,0,1-6.56,12.9h-.14v.1c.05-.03.09-.07.14-.1Z" transform="translate(-1665.3 -1225.4)" fill="#2d3368" fill-rule="evenodd"/>
</svg>
