<svg xmlns="http://www.w3.org/2000/svg" width="39.998" height="40" viewBox="0 0 39.998 40">
  <path id="settings" d="M37.805,15.657l-3.133-.4a15.749,15.749,0,0,0-.948-2.29l1.935-2.492a2.477,2.477,0,0,0-.2-3.3L32.83,4.553a2.484,2.484,0,0,0-3.308-.212L27.033,6.277a15.694,15.694,0,0,0-2.292-.948l-.4-3.128A2.5,2.5,0,0,0,21.867,0H18.133a2.5,2.5,0,0,0-2.477,2.195l-.4,3.133a15.512,15.512,0,0,0-2.292.948l-2.49-1.935a2.479,2.479,0,0,0-3.3.2L4.553,7.168a2.485,2.485,0,0,0-.212,3.31l1.935,2.49a15.567,15.567,0,0,0-.948,2.29l-3.128.4A2.5,2.5,0,0,0,0,18.133v3.733a2.5,2.5,0,0,0,2.195,2.477l3.133.4a15.75,15.75,0,0,0,.948,2.29L4.342,29.523a2.477,2.477,0,0,0,.2,3.3L7.17,35.447a2.486,2.486,0,0,0,3.308.21l2.49-1.935a15.387,15.387,0,0,0,2.29.948l.4,3.127A2.5,2.5,0,0,0,18.133,40h3.733a2.5,2.5,0,0,0,2.477-2.195l.4-3.133a15.751,15.751,0,0,0,2.29-.948l2.492,1.935a2.477,2.477,0,0,0,3.3-.2l2.625-2.625a2.483,2.483,0,0,0,.212-3.308l-1.935-2.49a15.388,15.388,0,0,0,.948-2.29l3.127-.4A2.5,2.5,0,0,0,40,21.867V18.133a2.493,2.493,0,0,0-2.193-2.477ZM20,28.333A8.333,8.333,0,1,1,28.333,20,8.343,8.343,0,0,1,20,28.333Z" fill="#fafafa"/>
</svg>