<svg xmlns="http://www.w3.org/2000/svg" width="15.204" height="18.187" viewBox="0 0 15.204 18.187">
  <g id="veroui" transform="translate(-1847.548 -661.122)" opacity="0.7">
    <g id="Group_15" data-name="Group 15" transform="translate(1847.548 661.122)">
      <g id="Lock-Orientation" transform="translate(0)">
        <path id="Path_3" data-name="Path 3" d="M66.678,397.82a1.085,1.085,0,0,1-1.085,1.085H61.248a1.085,1.085,0,0,1-1.085-1.085v-2.753a3.284,3.284,0,0,1,6.515,0Zm-3.258-7.534c-2.993,0-5.43,2.141-5.43,4.782v2.748A1.085,1.085,0,0,1,56.9,398.9a1.087,1.087,0,0,0-1.087,1.087v7.4a1.086,1.086,0,0,0,1.087,1.085H69.935a1.086,1.086,0,0,0,1.087-1.085v-7.4a1.087,1.087,0,0,0-1.087-1.087,1.085,1.085,0,0,1-1.085-1.085v-2.748C68.85,392.436,66.419,390.286,63.42,390.286Z" transform="translate(-55.818 -390.286)" fill="#989696" fill-rule="evenodd"/>
      </g>
    </g>
  </g>
</svg>
