<svg xmlns="http://www.w3.org/2000/svg" width="35.414" height="35.414" viewBox="0 0 35.414 35.414">
  <g id="RESEARCH_ICON" data-name="RESEARCH ICON" transform="translate(-360.79 -32.924)">
    <g id="Group_74" data-name="Group 74" transform="translate(-296.71 -74.576)">
      <g id="Search">
        <path id="Path_59" data-name="Path 59" d="M679.882,132.711a14,14,0,1,1-10.512-25.05,14.963,14.963,0,0,1,1.949-.16h.362a14.963,14.963,0,0,1,1.949.16,13.934,13.934,0,0,1,3.785,1.148,14.059,14.059,0,0,1,6.7,6.623,13.908,13.908,0,0,1,1.193,3.765,14.109,14.109,0,0,1,.053,4.259,13.937,13.937,0,0,1-2.653,6.426l10.2,10.2-2.828,2.828Zm-8.537-23.21a12.822,12.822,0,0,0-1.672.137,11.968,11.968,0,0,0-6.554,3.277,12.093,12.093,0,0,0-2.372,3.255,11.92,11.92,0,0,0-1.032,3.059,12.089,12.089,0,0,0-.1,3.949,11.912,11.912,0,0,0,1.067,3.522,12,12,0,0,0,22.6-7.471,11.908,11.908,0,0,0-.969-2.929,12,12,0,0,0-8.989-6.662,12.822,12.822,0,0,0-1.672-.137Z" fill="#989696" fill-rule="evenodd"/>
      </g>
    </g>
  </g>
</svg>