<svg id="user-settings-line" xmlns="http://www.w3.org/2000/svg" width="15.621" height="15.621" viewBox="0 0 15.621 15.621">
  <path id="Path_217" data-name="Path 217" d="M0,0H15.621V15.621H0Z" fill="none"/>
  <path id="Path_218" data-name="Path 218" d="M9.207,9.461v1.3A3.905,3.905,0,0,0,5.3,14.668H4A5.207,5.207,0,0,1,9.207,9.461Zm0-.651a3.905,3.905,0,1,1,3.905-3.905A3.9,3.9,0,0,1,9.207,8.811Zm0-1.3a2.6,2.6,0,1,0-2.6-2.6A2.6,2.6,0,0,0,9.207,7.509ZM10.9,12.593a2.285,2.285,0,0,1,0-1.056l-.646-.373.651-1.127.646.373a2.275,2.275,0,0,1,.914-.529V9.136h1.3v.745a2.273,2.273,0,0,1,.914.529l.646-.373.651,1.127-.646.373a2.285,2.285,0,0,1,0,1.056l.646.373-.651,1.127-.646-.373a2.275,2.275,0,0,1-.914.529v.745h-1.3v-.745a2.275,2.275,0,0,1-.914-.529l-.646.373-.651-1.127.646-.372Zm2.216.448a.976.976,0,1,0-.976-.976A.976.976,0,0,0,13.112,13.041Z" transform="translate(-1.396 -0.349)" fill="#707070"/>
</svg>