<svg xmlns="http://www.w3.org/2000/svg" width="15.143" height="17.606" viewBox="0 0 15.143 17.606">
  <g id="Group_14" data-name="Group 14" transform="translate(-971 -441.704)" opacity="0.5">
    <g id="Path_2" data-name="Path 2" transform="translate(971 447.673)" fill="#707070">
      <path d="M 3.658376216888428 11.1368408203125 C 2.365166425704956 11.1368408203125 1.532386302947998 11.04736137390137 1.102556347846985 10.59000110626221 C 0.6745663285255432 10.1345911026001 0.4999963045120239 9.216120719909668 0.4999963045120239 7.419801235198975 C 0.4999963045120239 2.954711198806763 3.140926361083984 2.057711124420166 7.402016162872314 2.057711124420166 C 9.842495918273926 2.057711124420166 11.44110584259033 2.361061096191406 12.58538627624512 3.041301250457764 C 13.97024631500244 3.864561080932617 14.64343643188477 5.296781063079834 14.64343643188477 7.419801235198975 C 14.64343643188477 9.16356086730957 14.4362964630127 10.10608100891113 13.95080661773682 10.5713415145874 C 13.45988655090332 11.04181098937988 12.53120613098145 11.1363410949707 11.19191646575928 11.13635158538818 C 10.74187660217285 11.13635158538818 10.23120594024658 11.12540149688721 9.690546035766602 11.11379146575928 C 9.014706611633301 11.09929084777832 8.248696327209473 11.08285140991211 7.402016162872314 11.08285140991211 C 6.546736240386963 11.08285140991211 5.783786296844482 11.0996208190918 5.110656261444092 11.11441135406494 C 4.563096523284912 11.12645149230957 4.090216159820557 11.1368408203125 3.658376216888428 11.1368408203125 Z" stroke="none"/>
      <path d="M 7.402016162872314 2.557711601257324 C 5.109676361083984 2.557711601257324 3.649395942687988 2.834590911865234 2.667186737060547 3.455491065979004 C 1.951486587524414 3.90791130065918 0.9999961853027344 4.811080932617188 0.9999961853027344 7.419801235198975 C 0.9999961853027344 8.420451164245605 1.048396110534668 9.802261352539063 1.466906547546387 10.24758148193359 C 1.730166435241699 10.52770137786865 2.344595909118652 10.6368408203125 3.658376693725586 10.6368408203125 C 4.084715843200684 10.6368408203125 4.555056571960449 10.62650108337402 5.099666595458984 10.61453056335449 C 5.775376319885254 10.59968090057373 6.54124641418457 10.58285140991211 7.402016162872314 10.58285140991211 C 8.254146575927734 10.58285140991211 9.023077011108398 10.59935092926025 9.701486587524414 10.61391067504883 C 10.23930644989014 10.62545108795166 10.74730682373047 10.63635063171387 11.19192600250244 10.63635063171387 C 12.37344646453857 10.63635063171387 13.23593616485596 10.56391143798828 13.60484600067139 10.21036148071289 C 13.97229671478271 9.858221054077148 14.14343643188477 8.971501350402832 14.14343643188477 7.419801235198975 C 14.14343643188477 4.846780776977539 13.10841655731201 3.933911323547363 12.32987594604492 3.471091270446777 C 11.28164672851563 2.847941398620605 9.715776443481445 2.557711601257324 7.402016162872314 2.557711601257324 M 7.402016162872314 1.557711601257324 C 11.58375644683838 1.557711601257324 15.14343643188477 2.413821220397949 15.14343643188477 7.419801235198975 C 15.14343643188477 11.16451644897461 14.20281028747559 11.63635158538818 11.19192314147949 11.63635158538818 C 10.17781162261963 11.63635158538818 8.929094314575195 11.58285140991211 7.402016162872314 11.58285140991211 C 5.871238708496094 11.58285140991211 4.641438484191895 11.63684463500977 3.658374786376953 11.63684463500977 C 0.7490968704223633 11.63684463500977 -3.814697265625e-06 11.16404724121094 -3.814697265625e-06 7.419801235198975 C -3.814697265625e-06 2.410350799560547 3.22027587890625 1.557711601257324 7.402016162872314 1.557711601257324 Z" stroke="none" fill="#707070"/>
    </g>
    <g id="Ellipse_1" data-name="Ellipse 1" transform="translate(973.222 441.704)" fill="#707070" stroke="#fff" stroke-width="1">
      <circle cx="5" cy="5" r="5" stroke="none"/>
      <circle cx="5" cy="5" r="4.5" fill="none"/>
    </g>
  </g>
</svg>
